<svg version="1.1" id="Layer_1" xmlns="http://www.w3.org/2000/svg" xmlns:xlink="http://www.w3.org/1999/xlink" x="0px" y="0px"
	 width="100%" viewBox="0 0 500 500" enable-background="new 0 0 500 500" xml:space="preserve">
<path fill="#E60202" opacity="1.000000" stroke="none" 
	d="
M270.000000,501.000000 
	C180.000015,501.000000 90.500046,501.000000 1.000032,501.000000 
	C1.000000,417.666718 1.000000,334.333405 1.000000,251.000122 
	C1.000000,167.666809 1.000000,84.333496 1.000000,1.000138 
	C167.666565,1.000092 334.333130,1.000092 500.999756,1.000046 
	C500.999847,167.666519 500.999847,334.333038 500.999939,500.999786 
	C424.166656,501.000000 347.333344,501.000000 270.000000,501.000000 
M218.087677,287.975372 
	C217.420975,289.407715 216.754288,290.840057 215.323242,292.633392 
	C211.695419,286.758850 206.255386,287.501953 200.850815,288.269714 
	C200.850815,293.076172 200.850815,297.505524 200.850815,301.934845 
	C205.340622,296.551636 209.434296,300.608643 213.670090,302.465149 
	C212.381226,297.328461 212.733536,296.408264 215.970688,295.634125 
	C216.886276,297.753601 213.538986,301.820740 219.608185,301.963318 
	C220.115005,301.956451 220.621826,301.949585 221.960052,301.986755 
	C222.625687,300.773010 223.699356,299.613159 223.868378,298.333801 
	C224.178986,295.982697 223.956955,293.561218 223.956955,291.459839 
	C235.532852,288.742889 229.573822,298.716309 233.556366,302.085052 
	C234.409149,299.061890 235.170731,295.878967 234.596008,292.959076 
	C234.231201,291.105621 232.073212,288.546417 230.375656,288.246002 
	C227.337021,287.708252 224.038971,288.636475 220.358994,288.726624 
	C219.874466,288.495270 219.389923,288.263885 218.087677,287.975372 
M347.390656,276.817963 
	C320.800934,282.904785 294.211243,288.991608 267.621521,295.078430 
	C268.816376,296.014130 269.883636,296.135132 270.916046,295.996490 
	C301.533234,291.885437 332.151398,287.780426 362.747223,283.515533 
	C364.180420,283.315735 365.409882,281.654327 367.219513,281.378784 
	C367.757629,281.969299 368.295776,282.559814 368.954315,284.061188 
	C368.954315,290.354523 368.954315,296.647888 368.954315,302.849457 
	C366.204102,301.362823 364.316040,299.418823 362.559692,299.531250 
	C335.819397,301.243134 309.095917,303.217651 282.371155,305.167786 
	C281.394989,305.238983 280.446289,305.687256 279.484772,305.959808 
	C279.530945,306.287720 279.577118,306.615662 279.623260,306.943573 
	C290.356506,306.943573 301.089752,306.943573 311.728607,306.943573 
	C312.890656,311.765778 313.293030,317.112579 319.139526,317.305176 
	C325.626404,317.518829 325.610718,311.347534 327.341888,306.741486 
	C341.867920,306.741486 356.290375,306.741486 370.723389,306.741486 
	C372.494598,300.356323 374.012909,293.462036 381.973328,293.907562 
	C390.615448,294.391235 391.083130,302.184570 392.683563,309.032776 
	C402.075684,309.647339 411.399963,310.322083 420.733521,310.823883 
	C423.144257,310.953522 424.863007,311.067291 426.302277,313.723969 
	C429.344757,319.340057 435.083435,319.121155 438.499573,313.600861 
	C439.347015,312.231445 439.936737,310.702484 440.587891,309.364105 
	C444.032379,309.168945 447.201660,308.989380 450.370911,308.809784 
	C450.311188,308.153320 450.251465,307.496826 450.191711,306.840363 
	C448.595276,306.840363 446.998810,306.840393 445.402344,306.840363 
	C433.412079,306.840118 421.421814,306.846619 409.431549,306.833679 
	C407.156403,306.831238 404.505707,307.209869 405.236298,303.092255 
	C420.188293,303.654663 435.085663,304.214996 450.412292,304.791504 
	C451.093292,285.822021 449.792664,267.488525 446.365479,249.314850 
	C445.260620,243.455948 441.507721,239.607025 435.982178,237.487976 
	C431.183289,235.647644 426.368225,233.849472 421.325226,231.247620 
	C419.065125,227.737656 419.078156,225.125473 423.843445,223.884201 
	C424.753601,223.647125 425.729309,222.219864 425.941650,221.190475 
	C426.119324,220.329193 425.389557,218.510651 424.781647,218.375519 
	C418.050873,216.879379 419.573151,213.359848 423.565460,208.266159 
	C420.902405,207.649002 418.819733,206.452652 417.300354,206.956146 
	C413.631378,208.172028 412.147125,207.366440 411.695618,203.507996 
	C411.548401,202.249863 410.052551,200.416000 408.931732,200.218628 
	C407.882172,200.033829 406.063263,201.397598 405.372345,202.552246 
	C403.655182,205.421890 401.789093,206.013000 399.522461,203.513870 
	C397.092316,200.834503 395.128937,201.373245 393.138306,203.771179 
	C394.384827,209.964264 394.370056,209.885269 387.875732,211.098862 
	C386.859192,211.288818 385.665924,212.415161 385.265228,213.398270 
	C384.966919,214.130051 385.512451,215.754410 386.205566,216.251785 
	C390.413818,219.271545 389.415375,221.706329 385.803772,224.352524 
	C385.064514,224.894165 384.601196,226.701111 384.934448,227.570877 
	C385.275848,228.461868 386.690094,229.052734 387.745117,229.531937 
	C389.143707,230.167206 390.649475,230.566589 391.756104,231.574112 
	C390.835693,232.010284 389.915314,232.446457 388.685974,232.333328 
	C387.316803,232.350708 385.834930,232.029770 384.597260,232.441971 
	C378.013519,234.634613 376.916931,233.900482 375.881104,227.202087 
	C375.648407,225.697342 374.172272,223.889603 372.778687,223.169907 
	C370.388336,221.935471 368.651611,223.076233 367.295258,225.606644 
	C364.096619,231.574020 362.847656,231.535782 357.663116,227.168686 
	C356.374878,226.083557 354.008209,225.643967 352.266968,225.876968 
	C349.504730,226.246582 349.539612,228.462646 349.923523,230.871933 
	C351.017731,237.739120 349.778748,238.863510 342.812347,238.872772 
	C341.263947,238.874832 339.276398,239.981949 338.269165,241.215591 
	C336.579712,243.284836 337.679474,245.148315 339.837280,246.455185 
	C340.535553,246.878082 341.082672,247.550522 341.138031,248.647125 
	C326.240936,254.695297 311.343811,260.743469 296.209351,266.888000 
	C295.590515,262.288574 295.042114,258.212769 294.507996,254.242828 
	C285.242676,252.707413 285.243134,252.707626 281.679504,260.287598 
	C278.878387,266.245728 276.075958,272.203247 272.758789,279.256775 
	C271.016113,274.771667 269.735657,271.476227 268.416107,268.080078 
	C269.512451,267.261780 270.677490,266.842102 270.997162,266.071686 
	C272.080078,263.461670 273.994019,260.437469 273.402740,258.132904 
	C272.933167,256.302734 269.406158,254.621490 266.970154,254.085770 
	C263.619965,253.348999 260.007446,253.571045 256.530823,253.777847 
	C255.403091,253.844925 253.600250,254.979126 253.379578,255.922943 
	C251.546051,263.764771 250.010818,271.676392 248.328369,279.843933 
	C251.569946,279.843933 254.197479,279.843933 257.022400,279.843933 
	C257.859497,276.719879 258.676270,273.671631 259.828949,269.369873 
	C260.875885,271.889648 261.341125,273.079742 261.860779,274.245575 
	C262.963287,276.718842 262.353760,280.604614 267.035400,280.058502 
	C270.149353,279.695312 273.490021,280.338715 276.406189,279.459778 
	C279.869904,278.415924 282.987122,276.222473 286.584686,274.355835 
	C287.250031,276.903412 287.618774,278.315460 287.971863,279.667480 
	C291.106659,279.667480 294.012604,279.667480 297.085327,279.667480 
	C297.085327,277.028442 297.085327,274.737488 297.085327,272.049683 
	C310.435272,268.383453 323.706146,264.738922 337.145111,261.847321 
	C339.252380,266.131256 342.757538,266.092743 350.600281,261.649078 
	C350.065002,260.336670 349.524414,259.011230 349.798676,257.224274 
	C354.280884,255.952652 358.799622,254.791962 363.221039,253.335739 
	C364.407928,252.944839 366.099915,251.724258 366.184265,250.763718 
	C366.523956,246.895142 366.324951,242.979263 366.324951,239.225372 
	C361.249023,240.514862 356.906097,241.618134 352.150360,242.013885 
	C357.962402,234.785583 366.125244,232.809494 372.390869,237.495056 
	C369.194489,236.438080 368.915253,238.184189 368.927856,240.769501 
	C368.976654,250.763214 368.863129,260.757690 367.896973,270.765717 
	C365.795807,270.554321 363.688232,270.392670 361.594727,270.122101 
	C355.707581,269.361115 349.343414,272.369415 347.390656,276.817963 
M259.218903,339.048401 
	C265.183044,338.708710 261.734100,334.824951 262.126923,332.274384 
	C261.292664,332.139771 260.804382,332.001617 260.313141,331.990173 
	C208.222412,330.774139 156.131577,329.563171 104.039955,328.386322 
	C102.744423,328.357025 101.072395,328.256195 100.200272,328.961090 
	C94.879562,333.261719 89.739632,337.785950 84.539406,342.235596 
	C84.724892,342.551300 84.910378,342.866974 85.095856,343.182678 
	C142.836746,341.809418 200.577621,340.436188 259.218903,339.048401 
M106.526123,319.116364 
	C104.527122,319.116364 102.510887,318.952301 100.533707,319.159973 
	C98.319496,319.392578 95.467995,319.232361 94.071411,320.520172 
	C89.724083,324.528839 85.933922,329.141693 81.927666,333.520233 
	C82.274498,333.931519 82.621323,334.342804 82.968155,334.754059 
	C85.475807,332.652649 88.194305,330.753113 90.443596,328.404297 
	C94.178299,324.504395 98.474838,323.524811 103.825241,323.596130 
	C155.127274,324.279938 206.432953,324.690857 257.737610,325.177429 
	C259.324371,325.192474 260.911407,325.179321 262.833862,325.179321 
	C262.686218,322.769745 262.580627,321.046051 262.462402,319.116394 
	C210.440323,319.116394 158.979385,319.116394 106.526123,319.116364 
M331.487579,246.983597 
	C334.230988,246.219360 334.965668,244.693405 333.317871,242.227768 
	C331.436218,239.412216 332.216736,237.751266 335.422424,236.726242 
	C336.421967,236.406631 337.674622,235.117859 337.752655,234.184311 
	C337.827057,233.293442 336.693146,231.691711 335.794769,231.434326 
	C331.757446,230.277618 331.906433,228.379242 333.830688,225.231110 
	C335.382294,222.692642 333.460083,220.362335 331.177856,221.314819 
	C325.253876,223.787155 325.307434,219.630905 324.508209,215.048141 
	C322.601440,216.028473 320.726135,216.397858 319.914093,217.529907 
	C318.036591,220.147247 316.450500,220.778519 313.928284,218.370804 
	C313.189850,217.665924 311.421783,217.227951 310.614136,217.635574 
	C309.806091,218.043396 309.034149,219.791580 309.244965,220.727234 
	C310.107971,224.557083 308.424957,225.441772 305.015747,225.334961 
	C304.019501,225.303741 302.434082,226.285004 302.128998,227.156052 
	C301.842743,227.973312 302.614746,229.564178 303.405090,230.280945 
	C305.895874,232.539902 305.666168,234.357437 303.191406,236.429749 
	C302.330231,237.150879 301.221039,238.911362 301.522522,239.405426 
	C302.136475,240.411469 303.584076,241.354813 304.774597,241.476181 
	C307.879761,241.792770 309.299408,242.959213 308.789612,246.282654 
	C308.607269,247.471436 309.328705,248.798843 309.637634,250.062988 
	C310.791199,249.748810 312.129852,249.705994 313.063446,249.069275 
	C315.792419,247.208084 317.808502,247.181702 319.504059,250.424652 
	C319.985748,251.345993 321.568237,252.420776 322.383484,252.240234 
	C323.253937,252.047501 324.212372,250.536438 324.438599,249.455627 
	C325.285461,245.410172 327.571411,245.251724 331.487579,246.983597 
M55.406277,258.887909 
	C53.976238,265.771881 52.546196,272.655853 51.017502,280.014709 
	C55.113899,280.014709 58.574131,280.041412 62.033829,280.009735 
	C72.459999,279.914246 78.219810,273.884674 77.935852,263.392761 
	C77.764160,257.048859 75.238022,254.309494 68.979355,253.869797 
	C66.336601,253.684158 63.652702,253.933838 61.032391,253.615799 
	C57.471020,253.183548 55.706779,254.521011 55.406277,258.887909 
M99.738632,277.833282 
	C101.722786,282.752411 105.324974,278.775757 108.132881,279.896393 
	C108.973999,276.478058 109.693169,273.555328 110.412338,270.632629 
	C113.062798,276.705109 114.814987,282.921997 123.568207,279.350006 
	C122.257713,275.686310 120.878036,271.829224 119.500969,267.979401 
	C120.353836,267.354706 120.877121,266.964661 121.407318,266.584229 
	C124.434097,264.412628 126.251488,261.142151 124.451950,258.021637 
	C123.264046,255.961761 119.925781,254.685928 117.307167,254.030533 
	C114.475151,253.321732 111.353119,253.846939 108.371124,253.639343 
	C105.794167,253.459946 104.488556,254.226898 103.999313,257.016663 
	C102.823502,263.721161 101.288757,270.362762 99.738632,277.833282 
M249.086960,255.886856 
	C248.475357,255.173935 247.863754,254.460999 247.252136,253.748077 
	C246.543350,254.711105 245.448792,255.581314 245.190964,256.652863 
	C243.911118,261.972046 242.983383,267.377014 241.664276,272.685333 
	C240.904846,275.741455 238.571945,276.925659 235.515305,276.205658 
	C232.203339,275.425476 232.864639,272.894226 233.340073,270.597107 
	C234.473267,265.122101 235.675476,259.661377 236.962479,253.670441 
	C234.296387,253.670441 232.116913,253.398071 230.058151,253.778687 
	C228.931305,253.987015 227.340240,255.140961 227.104630,256.139038 
	C225.811127,261.618317 224.531097,267.148407 223.992065,272.733002 
	C223.797333,274.750702 225.078415,277.876251 226.703613,278.936615 
	C233.638550,283.461395 243.795013,279.267822 245.859024,271.282501 
	C247.103119,266.469269 247.961487,261.556335 249.086960,255.886856 
M161.926422,258.314941 
	C160.949371,262.860565 160.144379,267.453583 158.912766,271.929138 
	C158.401596,273.786682 156.978775,275.393341 155.970535,277.114105 
	C155.404602,275.159424 154.848602,273.201721 154.261963,271.253265 
	C154.174805,270.963715 153.943344,270.717621 153.600830,270.164032 
	C152.468811,270.164032 151.091125,269.909180 149.868195,270.235077 
	C148.622803,270.566925 146.759171,271.275787 146.534622,272.165070 
	C146.102356,273.877106 145.916138,276.451233 146.889404,277.583008 
	C151.707733,283.186218 165.549042,280.458832 167.569153,273.461792 
	C169.393021,267.144592 170.445175,260.604553 172.144821,252.741791 
	C168.259720,255.234116 162.947449,250.402832 161.926422,258.314941 
M139.715302,264.890839 
	C139.320267,262.424194 138.925232,259.957550 138.546982,257.595642 
	C142.572495,256.944733 145.403961,256.486877 148.235428,256.029022 
	C148.121262,255.424606 148.007080,254.820175 147.892899,254.215744 
	C142.362778,254.215744 136.832657,254.215744 130.930878,254.215744 
	C129.159531,262.682587 127.385979,271.159882 125.592400,279.732971 
	C139.488861,280.657776 141.566345,280.388031 143.118546,277.309479 
	C140.630264,277.030151 138.249146,276.762848 135.376144,276.440338 
	C135.991638,273.466003 136.542328,270.804840 136.979614,268.691681 
	C140.037399,267.987946 142.370483,267.451019 144.703552,266.914062 
	C144.596558,266.355743 144.489563,265.797424 144.382553,265.239136 
	C143.100906,265.129608 141.819260,265.020111 139.715302,264.890839 
M173.686844,265.035522 
	C172.689163,269.843353 171.691498,274.651215 170.687119,279.491394 
	C181.401901,280.932800 186.547104,280.339905 188.138275,277.324402 
	C185.631241,277.037872 183.255997,276.766388 180.382874,276.438049 
	C180.992859,273.475830 181.542007,270.809082 181.975189,268.705475 
	C185.038345,267.986725 187.367035,267.440308 189.695724,266.893921 
	C189.588196,266.357727 189.480667,265.821533 189.373138,265.285370 
	C187.303101,265.035217 185.233078,264.785095 182.803528,264.491516 
	C183.389893,261.846832 183.913391,259.485657 184.325699,257.626068 
	C187.726257,256.939148 190.466583,256.385620 193.206894,255.832108 
	C193.071365,255.258514 192.935852,254.684937 192.800323,254.111343 
	C187.365280,254.111343 181.930237,254.111343 176.015289,254.111343 
	C175.306030,257.453949 174.589615,260.830292 173.686844,265.035522 
M91.685265,268.019806 
	C93.657959,267.623230 95.630653,267.226654 97.603355,266.830078 
	C97.498116,266.299988 97.392876,265.769867 97.287636,265.239777 
	C95.234917,265.008301 93.182190,264.776825 90.782059,264.506165 
	C91.401695,261.754150 91.931946,259.399109 92.424561,257.211243 
	C99.994698,256.650970 99.994698,256.650970 100.784920,254.084961 
	C95.273079,254.084961 89.837029,254.084961 83.984291,254.084961 
	C82.196594,262.544739 80.420387,270.950165 78.641594,279.367828 
	C87.872841,281.056274 94.884987,280.226837 95.904488,277.234253 
	C93.488022,276.980286 91.125740,276.731995 87.957039,276.398987 
	C89.053795,273.246368 89.945427,270.683380 91.685265,268.019806 
M215.969284,265.598602 
	C216.144623,264.788971 216.395676,263.987366 216.482437,263.168335 
	C216.895126,259.272797 217.687332,255.903000 222.951538,256.792358 
	C223.539917,256.891754 224.390869,255.437027 226.137527,253.678864 
	C218.079529,253.678864 211.645813,253.591141 205.219498,253.769699 
	C204.209808,253.797745 203.233688,255.033188 201.256561,256.383301 
	C204.547073,256.865570 206.407364,257.138214 208.566727,257.454712 
	C207.016693,265.048706 205.541626,272.275330 204.015839,279.750549 
	C207.273117,279.750549 210.018204,279.750549 212.866928,279.750549 
	C213.892593,275.159912 214.867416,270.796906 215.969284,265.598602 
M375.564331,300.349365 
	C375.414276,304.811951 374.621704,309.393951 375.418396,313.680573 
	C375.755035,315.492004 379.440094,317.835114 381.597687,317.829468 
	C383.755280,317.823883 387.095734,315.603302 387.793304,313.610168 
	C388.969879,310.248413 389.357361,306.074402 388.487579,302.645050 
	C386.721497,295.681854 381.212280,294.631378 375.564331,300.349365 
M114.008324,302.010468 
	C114.581818,301.537506 115.155319,301.064575 115.728821,300.591644 
	C114.868500,300.058441 114.066971,299.239380 113.136337,299.047974 
	C110.757332,298.558533 108.320824,298.348633 105.122360,297.922302 
	C108.150124,294.247833 113.089584,298.288452 114.499657,293.111481 
	C111.306511,292.749084 108.734558,292.457184 106.162605,292.165283 
	C106.165054,291.645111 106.167496,291.124939 106.169945,290.604797 
	C109.451263,290.110931 112.732582,289.617065 116.013901,289.123230 
	C115.932541,288.453400 115.851181,287.783539 115.769821,287.113708 
	C113.729126,286.970276 111.688263,286.703735 109.647774,286.706696 
	C103.797600,286.715118 102.189522,288.487244 102.229843,294.659729 
	C102.267319,300.396118 103.868935,301.991669 109.647316,302.038666 
	C110.812126,302.048126 111.977104,302.037384 114.008324,302.010468 
M242.564224,290.993500 
	C244.979889,291.876617 247.395554,292.759735 249.890564,293.671875 
	C250.067200,293.232727 250.488602,292.721313 250.387451,292.353699 
	C249.362930,288.630127 245.842896,286.884216 241.171707,287.996460 
	C237.163910,288.950775 236.378189,292.028015 236.533234,295.677246 
	C236.701004,299.625397 238.475586,301.916351 242.572861,302.010468 
	C245.027267,302.066864 247.484039,302.020813 250.236435,302.020813 
	C250.236435,299.512848 250.236435,297.451202 250.236435,294.802948 
	C247.283539,295.075134 244.741257,295.309479 242.198975,295.543823 
	C242.230301,296.132843 242.261612,296.721893 242.292938,297.310913 
	C243.642105,297.710327 244.991272,298.109741 246.340439,298.509155 
	C244.148926,298.834930 240.852737,298.640839 240.581985,297.633545 
	C240.060364,295.692993 241.249527,293.292542 242.564224,290.993500 
M181.189133,287.930176 
	C179.193207,287.922699 176.910431,287.297058 175.271027,288.057800 
	C173.016037,289.104248 170.249237,290.840942 169.499680,292.927704 
	C168.305588,296.251984 168.952087,300.434418 173.019012,301.617096 
	C176.082626,302.508026 179.613159,301.793304 182.935852,301.793304 
	C183.015549,301.147278 183.095261,300.501221 183.174957,299.855194 
	C179.884644,299.286224 176.594330,298.717224 173.304001,298.148254 
	C173.377960,297.862549 173.451920,297.576843 173.525864,297.291168 
	C176.307114,296.870361 179.088379,296.449554 181.869629,296.028748 
	C181.833328,295.391052 181.797043,294.753387 181.760742,294.115723 
	C178.921524,293.751343 176.082291,293.386963 173.243057,293.022583 
	C173.248901,292.494995 173.254745,291.967407 173.260590,291.439819 
	C175.568344,291.287140 177.877808,291.156494 180.183365,290.975739 
	C182.614105,290.785217 182.612457,290.764282 181.189133,287.930176 
M190.963333,296.811157 
	C192.971481,296.164124 196.235489,298.296906 197.325104,293.980927 
	C193.989899,293.669159 191.249466,293.412994 188.509018,293.156830 
	C188.497833,292.647919 188.486633,292.139008 188.475433,291.630096 
	C191.908569,291.170532 195.341705,290.710938 198.774841,290.251343 
	C193.224792,286.926910 187.115402,287.275879 186.103500,290.458557 
	C185.177032,293.372467 185.416092,297.251221 186.615204,300.080231 
	C187.824860,302.934113 194.718857,302.856049 199.836685,299.983673 
	C197.385208,299.523407 196.013763,299.175323 194.621063,299.027985 
	C192.977005,298.854004 191.314560,298.853668 189.660095,298.778076 
	C189.819992,298.127960 189.979904,297.477844 190.963333,296.811157 
M145.253952,295.038452 
	C143.118774,295.327240 140.983582,295.616028 138.848404,295.904816 
	C138.929916,296.452423 139.011429,297.000031 139.092926,297.547638 
	C140.421127,297.859894 141.749329,298.172150 143.077530,298.484406 
	C140.718246,298.857025 138.096268,298.634460 136.948776,297.217682 
	C136.093109,296.161224 137.143784,293.560791 137.345490,291.647949 
	C140.229706,292.003418 143.113907,292.358917 146.546524,292.782013 
	C146.454117,293.134827 146.991272,292.281921 146.766144,291.754333 
	C144.941254,287.478180 141.120728,287.290009 137.494431,288.105164 
	C133.253372,289.058472 132.713089,292.646484 133.080597,296.392578 
	C133.419876,299.850586 135.257584,301.867554 138.806641,302.000458 
	C141.403625,302.097748 144.007172,302.019562 147.325211,302.019562 
	C146.835312,299.246582 146.480026,297.235565 145.253952,295.038452 
M153.509247,290.976654 
	C153.509247,294.643616 153.509247,298.310608 153.509247,301.977570 
	C154.377792,302.042328 155.246338,302.107056 156.114883,302.171814 
	C156.472946,298.599243 156.831024,295.026672 157.240753,290.938629 
	C160.167038,291.522827 163.856293,289.302643 164.358398,294.703827 
	C164.586136,297.153564 165.619492,299.528442 166.287369,301.937256 
	C166.728043,299.145721 167.176407,296.355377 167.598846,293.561096 
	C167.647125,293.241760 167.680359,292.773193 167.500412,292.589478 
	C165.957230,291.014160 164.377121,288.235107 162.781555,288.217468 
	C159.765457,288.184204 155.797653,285.728790 153.509247,290.976654 
M128.294281,298.229431 
	C128.643784,299.424500 128.947571,300.638275 129.417435,301.783997 
	C129.461731,301.891998 131.069000,301.602112 131.078262,301.445404 
	C131.262909,298.321320 131.854477,295.069458 131.189484,292.107056 
	C130.822205,290.470886 128.489700,288.554871 126.712982,288.122955 
	C123.961456,287.454041 120.927612,287.946442 117.511955,287.946442 
	C117.511955,292.338257 117.403389,295.977966 117.595772,299.601715 
	C117.638626,300.408936 118.740089,301.159943 119.354149,301.936829 
	C119.827339,301.175110 120.660583,300.435364 120.708626,299.647705 
	C120.876663,296.892548 120.773735,294.120880 120.773735,291.446747 
	C128.046951,290.642456 128.191605,290.769684 128.294281,298.229431 
M263.974640,335.614166 
	C264.655701,339.482849 267.022400,340.098969 273.323303,338.098083 
	C273.323303,336.174072 273.323303,334.283081 273.323303,332.020233 
	C270.562042,332.020233 268.162689,331.807373 265.843445,332.144958 
	C265.110840,332.251587 264.592560,333.830658 263.974640,335.614166 
M275.130432,333.969727 
	C275.219208,335.538116 275.308014,337.106537 275.390930,338.571411 
	C278.770966,338.571411 281.531433,338.571411 285.171783,338.571411 
	C284.689606,336.309113 284.532227,333.101959 283.894226,333.003296 
	C281.091553,332.569977 278.149963,333.035034 275.130432,333.969727 
M291.479645,324.080933 
	C292.731995,324.473785 293.984344,324.866638 295.236694,325.259460 
	C295.460785,323.303864 295.684875,321.348297 295.917938,319.314301 
	C293.210052,319.314301 291.358643,319.235016 289.518585,319.345367 
	C288.488708,319.407135 286.629089,319.706848 286.599976,320.030579 
	C286.445496,321.745087 286.753296,323.501251 286.900909,325.242981 
	C288.126984,324.862518 289.353088,324.482025 291.479645,324.080933 
M149.746841,288.028381 
	C149.397293,292.183624 148.994415,296.336060 148.776077,300.498199 
	C148.752808,300.941864 149.748703,301.652710 150.386810,301.833344 
	C150.742340,301.933960 151.777527,301.164307 151.754364,300.840668 
	C151.448273,296.563171 151.008362,292.295197 149.746841,288.028381 
z"/>
<path fill="#070301" opacity="1.000000" stroke="none" 
	d="
M421.560333,232.032669 
	C426.368225,233.849472 431.183289,235.647644 435.982178,237.487976 
	C441.507721,239.607025 445.260620,243.455948 446.365479,249.314850 
	C449.792664,267.488525 451.093292,285.822021 450.412292,304.791504 
	C435.085663,304.214996 420.188293,303.654663 405.236298,303.092255 
	C404.505707,307.209869 407.156403,306.831238 409.431549,306.833679 
	C421.421814,306.846619 433.412079,306.840118 445.402344,306.840363 
	C446.998810,306.840393 448.595276,306.840363 450.191711,306.840363 
	C450.251465,307.496826 450.311188,308.153320 450.370911,308.809784 
	C447.201660,308.989380 444.032379,309.168945 440.587891,309.364105 
	C439.936737,310.702484 439.347015,312.231445 438.499573,313.600861 
	C435.083435,319.121155 429.344757,319.340057 426.302277,313.723969 
	C424.863007,311.067291 423.144257,310.953522 420.733521,310.823883 
	C411.399963,310.322083 402.075684,309.647339 392.683563,309.032776 
	C391.083130,302.184570 390.615448,294.391235 381.973328,293.907562 
	C374.012909,293.462036 372.494598,300.356323 370.723389,306.741486 
	C356.290375,306.741486 341.867920,306.741486 327.341888,306.741486 
	C325.610718,311.347534 325.626404,317.518829 319.139526,317.305176 
	C313.293030,317.112579 312.890656,311.765778 311.728607,306.943573 
	C301.089752,306.943573 290.356506,306.943573 279.623260,306.943573 
	C279.577118,306.615662 279.530945,306.287720 279.484772,305.959808 
	C280.446289,305.687256 281.394989,305.238983 282.371155,305.167786 
	C309.095917,303.217651 335.819397,301.243134 362.559692,299.531250 
	C364.316040,299.418823 366.204102,301.362823 368.954315,302.849457 
	C368.954315,296.647888 368.954315,290.354523 368.986084,283.143555 
	C368.948608,278.401276 368.879364,274.576569 368.810089,270.751892 
	C368.863129,260.757690 368.976654,250.763214 368.927856,240.769501 
	C368.915253,238.184189 369.194489,236.438080 372.730957,237.234924 
	C373.071075,236.974792 373.027649,236.916946 373.092865,237.327789 
	C373.952667,237.833771 374.747284,237.928879 375.853607,238.153076 
	C377.362244,238.322754 378.783783,238.801666 379.715240,238.324356 
	C382.901367,236.691696 385.915283,234.723083 388.994904,232.882629 
	C389.915314,232.446457 390.835693,232.010284 392.256714,231.285126 
	C393.643921,230.402466 394.530548,229.808792 395.774261,229.127182 
	C399.793243,226.628601 403.596710,226.115738 407.740204,227.841705 
	C409.673645,228.647095 411.789307,229.015106 414.115356,229.770554 
	C416.792358,230.650726 419.176331,231.341690 421.560333,232.032669 
M428.962524,251.423050 
	C428.962524,251.423050 428.941071,251.018890 429.512054,250.625015 
	C428.143066,249.457108 426.943359,247.658951 425.373932,247.237442 
	C420.315704,245.878998 415.121216,245.027756 409.277740,243.608688 
	C402.453339,241.625748 396.909546,245.196823 390.397156,247.923264 
	C388.236298,248.902435 386.075409,249.881607 383.166718,250.944565 
	C374.776550,254.221710 374.440186,254.787552 376.853973,262.302307 
	C379.275116,261.315155 381.667633,260.339691 384.759430,259.260529 
	C387.178101,258.820679 389.596771,258.380829 392.623871,258.417847 
	C393.980286,259.362122 395.951385,260.002289 396.593353,261.300018 
	C400.777008,269.756744 408.743683,269.233765 416.224457,269.978577 
	C417.875549,270.142975 419.518799,270.384308 421.167145,270.577972 
	C429.026672,271.501343 436.886719,272.420410 445.584564,273.439178 
	C444.631714,267.433777 443.795532,262.419220 443.047791,257.391510 
	C441.899048,249.667816 441.925018,249.617035 433.783173,249.584702 
	C432.876465,249.581100 431.966125,250.486740 430.756866,251.419067 
	C430.466248,251.629700 430.175629,251.840332 429.380707,252.031723 
	C429.227173,251.962997 429.073608,251.894272 428.962524,251.423050 
M413.566986,291.512451 
	C416.494049,292.202209 419.388184,293.165131 422.355286,293.522827 
	C427.910278,294.192535 433.507568,294.511536 439.087250,294.976440 
	C439.134277,294.367554 439.181305,293.758698 439.228333,293.149841 
	C430.719757,292.363403 422.211212,291.576965 413.566986,291.512451 
M429.986359,296.387665 
	C424.552521,295.969513 419.118683,295.551392 413.684845,295.133270 
	C413.645721,295.902771 413.606628,296.672272 413.567505,297.441772 
	C421.241730,297.991058 428.915955,298.540344 436.590149,299.089630 
	C436.661011,298.538269 436.731873,297.986877 436.802734,297.435516 
	C434.821686,297.143677 432.840607,296.851807 429.986359,296.387665 
z"/>
<path fill="#050000" opacity="1.000000" stroke="none" 
	d="
M258.768707,339.055664 
	C200.577621,340.436188 142.836746,341.809418 85.095856,343.182678 
	C84.910378,342.866974 84.724892,342.551300 84.539406,342.235596 
	C89.739632,337.785950 94.879562,333.261719 100.200272,328.961090 
	C101.072395,328.256195 102.744423,328.357025 104.039955,328.386322 
	C156.131577,329.563171 208.222412,330.774139 260.313141,331.990173 
	C260.804382,332.001617 261.292664,332.139771 262.126923,332.274384 
	C261.734100,334.824951 265.183044,338.708710 258.768707,339.055664 
z"/>
<path fill="#080201" opacity="1.000000" stroke="none" 
	d="
M352.563141,242.721405 
	C356.906097,241.618134 361.249023,240.514862 366.324951,239.225372 
	C366.324951,242.979263 366.523956,246.895142 366.184265,250.763718 
	C366.099915,251.724258 364.407928,252.944839 363.221039,253.335739 
	C358.799622,254.791962 354.280884,255.952652 349.089966,257.426880 
	C344.579865,258.784454 340.778473,259.939423 336.977051,261.094391 
	C323.706146,264.738922 310.435272,268.383453 297.085327,272.049683 
	C297.085327,274.737488 297.085327,277.028442 297.085327,279.667480 
	C294.012604,279.667480 291.106659,279.667480 287.971863,279.667480 
	C287.618774,278.315460 287.250031,276.903412 286.584686,274.355835 
	C282.987122,276.222473 279.869904,278.415924 276.406189,279.459778 
	C273.490021,280.338715 270.149353,279.695312 267.035400,280.058502 
	C262.353760,280.604614 262.963287,276.718842 261.860779,274.245575 
	C261.341125,273.079742 260.875885,271.889648 259.828949,269.369873 
	C258.676270,273.671631 257.859497,276.719879 257.022400,279.843933 
	C254.197479,279.843933 251.569946,279.843933 248.328369,279.843933 
	C250.010818,271.676392 251.546051,263.764771 253.379578,255.922943 
	C253.600250,254.979126 255.403091,253.844925 256.530823,253.777847 
	C260.007446,253.571045 263.619965,253.348999 266.970154,254.085770 
	C269.406158,254.621490 272.933167,256.302734 273.402740,258.132904 
	C273.994019,260.437469 272.080078,263.461670 270.997162,266.071686 
	C270.677490,266.842102 269.512451,267.261780 268.416107,268.080078 
	C269.735657,271.476227 271.016113,274.771667 272.758789,279.256775 
	C276.075958,272.203247 278.878387,266.245728 281.679504,260.287598 
	C285.243134,252.707626 285.242676,252.707413 294.507996,254.242828 
	C295.042114,258.212769 295.590515,262.288574 296.209351,266.888000 
	C311.343811,260.743469 326.240936,254.695297 341.736755,248.349243 
	C345.191772,246.863571 348.048065,245.675797 351.275452,244.392059 
	C352.064758,243.806137 352.482971,243.316193 352.805237,242.836975 
	C352.709259,242.847702 352.563141,242.721405 352.563141,242.721405 
M264.816895,264.120422 
	C265.220825,262.714722 266.019867,261.276703 265.908203,259.913208 
	C265.812592,258.745575 264.673676,257.663391 263.996185,256.543396 
	C263.213928,257.367188 262.059174,258.064056 261.726318,259.040955 
	C261.014587,261.129761 260.728119,263.363495 260.038177,266.620239 
	C262.154968,265.689026 263.248657,265.207916 264.816895,264.120422 
M286.039612,261.449646 
	C285.969940,261.299713 285.929016,261.122070 285.820526,261.009583 
	C285.747559,260.933929 285.482239,260.902039 285.466888,260.932678 
	C283.969330,263.920959 282.487549,266.917084 280.611176,270.707794 
	C283.364777,270.452332 285.038147,270.297058 286.987732,270.116211 
	C286.657013,267.038361 286.393951,264.590332 286.039612,261.449646 
z"/>
<path fill="#FDECEC" opacity="1.000000" stroke="none" 
	d="
M107.022285,319.116394 
	C158.979385,319.116394 210.440323,319.116394 262.462402,319.116394 
	C262.580627,321.046051 262.686218,322.769745 262.833862,325.179321 
	C260.911407,325.179321 259.324371,325.192474 257.737610,325.177429 
	C206.432953,324.690857 155.127274,324.279938 103.825241,323.596130 
	C98.474838,323.524811 94.178299,324.504395 90.443596,328.404297 
	C88.194305,330.753113 85.475807,332.652649 82.968155,334.754059 
	C82.621323,334.342804 82.274498,333.931519 81.927666,333.520233 
	C85.933922,329.141693 89.724083,324.528839 94.071411,320.520172 
	C95.467995,319.232361 98.319496,319.392578 100.533707,319.159973 
	C102.510887,318.952301 104.527122,319.116364 107.022285,319.116394 
z"/>
<path fill="#0C0402" opacity="1.000000" stroke="none" 
	d="
M366.734253,280.673615 
	C365.409882,281.654327 364.180420,283.315735 362.747223,283.515533 
	C332.151398,287.780426 301.533234,291.885437 270.916046,295.996490 
	C269.883636,296.135132 268.816376,296.014130 267.621521,295.078430 
	C294.211243,288.991608 320.800934,282.904785 348.160339,276.608246 
	C354.564270,275.203247 360.198517,274.007965 365.814728,272.816528 
	C366.170776,275.859009 366.452515,278.266327 366.734253,280.673615 
z"/>
<path fill="#FDF2F2" opacity="1.000000" stroke="none" 
	d="
M331.087585,246.878433 
	C327.571411,245.251724 325.285461,245.410172 324.438599,249.455627 
	C324.212372,250.536438 323.253937,252.047501 322.383484,252.240234 
	C321.568237,252.420776 319.985748,251.345993 319.504059,250.424652 
	C317.808502,247.181702 315.792419,247.208084 313.063446,249.069275 
	C312.129852,249.705994 310.791199,249.748810 309.637634,250.062988 
	C309.328705,248.798843 308.607269,247.471436 308.789612,246.282654 
	C309.299408,242.959213 307.879761,241.792770 304.774597,241.476181 
	C303.584076,241.354813 302.136475,240.411469 301.522522,239.405426 
	C301.221039,238.911362 302.330231,237.150879 303.191406,236.429749 
	C305.666168,234.357437 305.895874,232.539902 303.405090,230.280945 
	C302.614746,229.564178 301.842743,227.973312 302.128998,227.156052 
	C302.434082,226.285004 304.019501,225.303741 305.015747,225.334961 
	C308.424957,225.441772 310.107971,224.557083 309.244965,220.727234 
	C309.034149,219.791580 309.806091,218.043396 310.614136,217.635574 
	C311.421783,217.227951 313.189850,217.665924 313.928284,218.370804 
	C316.450500,220.778519 318.036591,220.147247 319.914093,217.529907 
	C320.726135,216.397858 322.601440,216.028473 324.508209,215.048141 
	C325.307434,219.630905 325.253876,223.787155 331.177856,221.314819 
	C333.460083,220.362335 335.382294,222.692642 333.830688,225.231110 
	C331.906433,228.379242 331.757446,230.277618 335.794769,231.434326 
	C336.693146,231.691711 337.827057,233.293442 337.752655,234.184311 
	C337.674622,235.117859 336.421967,236.406631 335.422424,236.726242 
	C332.216736,237.751266 331.436218,239.412216 333.317871,242.227768 
	C334.965668,244.693405 334.230988,246.219360 331.087585,246.878433 
M317.846771,223.098434 
	C316.329224,223.714401 314.692993,224.136810 313.315460,224.981186 
	C308.418854,227.982590 306.864014,233.662888 309.361389,238.876770 
	C311.753357,243.870621 317.534546,246.226669 322.799652,244.353317 
	C327.837067,242.561020 330.755188,237.583511 329.974854,232.114380 
	C329.214355,226.784424 325.380493,223.718109 317.846771,223.098434 
z"/>
<path fill="#080000" opacity="1.000000" stroke="none" 
	d="
M55.529366,258.495789 
	C55.706779,254.521011 57.471020,253.183548 61.032391,253.615799 
	C63.652702,253.933838 66.336601,253.684158 68.979355,253.869797 
	C75.238022,254.309494 77.764160,257.048859 77.935852,263.392761 
	C78.219810,273.884674 72.459999,279.914246 62.033829,280.009735 
	C58.574131,280.041412 55.113899,280.014709 51.017502,280.014709 
	C52.546196,272.655853 53.976238,265.771881 55.529366,258.495789 
M61.675873,272.115875 
	C61.407322,273.654114 61.138771,275.192322 60.870216,276.730560 
	C61.337803,277.025604 61.805386,277.320618 62.272968,277.615662 
	C63.618603,276.247040 65.672813,275.096130 66.173119,273.467773 
	C67.516434,269.095703 68.349876,264.542053 69.012390,260.005981 
	C69.151375,259.054413 67.690079,257.869110 66.966194,256.791534 
	C66.061295,257.745270 64.648697,258.560486 64.343765,259.677948 
	C63.302429,263.494019 62.650734,267.416351 61.675873,272.115875 
z"/>
<path fill="#FDF2F2" opacity="1.000000" stroke="none" 
	d="
M395.417145,229.215134 
	C394.530548,229.808792 393.643921,230.402466 392.433228,231.031738 
	C390.649475,230.566589 389.143707,230.167206 387.745117,229.531937 
	C386.690094,229.052734 385.275848,228.461868 384.934448,227.570877 
	C384.601196,226.701111 385.064514,224.894165 385.803772,224.352524 
	C389.415375,221.706329 390.413818,219.271545 386.205566,216.251785 
	C385.512451,215.754410 384.966919,214.130051 385.265228,213.398270 
	C385.665924,212.415161 386.859192,211.288818 387.875732,211.098862 
	C394.370056,209.885269 394.384827,209.964264 393.138306,203.771179 
	C395.128937,201.373245 397.092316,200.834503 399.522461,203.513870 
	C401.789093,206.013000 403.655182,205.421890 405.372345,202.552246 
	C406.063263,201.397598 407.882172,200.033829 408.931732,200.218628 
	C410.052551,200.416000 411.548401,202.249863 411.695618,203.507996 
	C412.147125,207.366440 413.631378,208.172028 417.300354,206.956146 
	C418.819733,206.452652 420.902405,207.649002 423.565460,208.266159 
	C419.573151,213.359848 418.050873,216.879379 424.781647,218.375519 
	C425.389557,218.510651 426.119324,220.329193 425.941650,221.190475 
	C425.729309,222.219864 424.753601,223.647125 423.843445,223.884201 
	C419.078156,225.125473 419.065125,227.737656 421.442780,231.640137 
	C419.176331,231.341690 416.792358,230.650726 414.424957,229.504700 
	C418.128510,223.116089 418.137024,217.281189 414.465057,212.924866 
	C410.864014,208.652695 404.850037,207.420456 399.507568,209.860153 
	C392.211304,213.192093 390.463104,221.464142 395.417145,229.215134 
z"/>
<path fill="#070000" opacity="1.000000" stroke="none" 
	d="
M99.818733,277.431519 
	C101.288757,270.362762 102.823502,263.721161 103.999313,257.016663 
	C104.488556,254.226898 105.794167,253.459946 108.371124,253.639343 
	C111.353119,253.846939 114.475151,253.321732 117.307167,254.030533 
	C119.925781,254.685928 123.264046,255.961761 124.451950,258.021637 
	C126.251488,261.142151 124.434097,264.412628 121.407318,266.584229 
	C120.877121,266.964661 120.353836,267.354706 119.500969,267.979401 
	C120.878036,271.829224 122.257713,275.686310 123.568207,279.350006 
	C114.814987,282.921997 113.062798,276.705109 110.412338,270.632629 
	C109.693169,273.555328 108.973999,276.478058 108.132881,279.896393 
	C105.324974,278.775757 101.722786,282.752411 99.818733,277.431519 
M116.015907,256.907776 
	C109.650238,257.350647 113.362625,262.761780 110.986069,265.607422 
	C116.356133,265.209290 117.377945,263.489746 116.015907,256.907776 
z"/>
<path fill="#FDF8F7" opacity="1.000000" stroke="none" 
	d="
M350.904327,244.488007 
	C348.048065,245.675797 345.191772,246.863571 342.017212,248.080093 
	C341.082672,247.550522 340.535553,246.878082 339.837280,246.455185 
	C337.679474,245.148315 336.579712,243.284836 338.269165,241.215591 
	C339.276398,239.981949 341.263947,238.874832 342.812347,238.872772 
	C349.778748,238.863510 351.017731,237.739120 349.923523,230.871933 
	C349.539612,228.462646 349.504730,226.246582 352.266968,225.876968 
	C354.008209,225.643967 356.374878,226.083557 357.663116,227.168686 
	C362.847656,231.535782 364.096619,231.574020 367.295258,225.606644 
	C368.651611,223.076233 370.388336,221.935471 372.778687,223.169907 
	C374.172272,223.889603 375.648407,225.697342 375.881104,227.202087 
	C376.916931,233.900482 378.013519,234.634613 384.597260,232.441971 
	C385.834930,232.029770 387.316803,232.350708 388.840454,232.607971 
	C385.915283,234.723083 382.901367,236.691696 379.715240,238.324356 
	C378.783783,238.801666 377.362244,238.322754 375.672729,237.805664 
	C374.462616,237.191772 373.745148,237.054367 373.027649,236.916946 
	C373.027649,236.916946 373.071075,236.974792 373.101074,236.954788 
	C366.125244,232.809494 357.962402,234.785583 352.356750,242.367645 
	C352.563141,242.721405 352.709259,242.847702 352.441376,242.556763 
	C351.750427,243.006561 351.327393,243.747284 350.904327,244.488007 
z"/>
<path fill="#090000" opacity="1.000000" stroke="none" 
	d="
M249.040085,256.287537 
	C247.961487,261.556335 247.103119,266.469269 245.859024,271.282501 
	C243.795013,279.267822 233.638550,283.461395 226.703613,278.936615 
	C225.078415,277.876251 223.797333,274.750702 223.992065,272.733002 
	C224.531097,267.148407 225.811127,261.618317 227.104630,256.139038 
	C227.340240,255.140961 228.931305,253.987015 230.058151,253.778687 
	C232.116913,253.398071 234.296387,253.670441 236.962479,253.670441 
	C235.675476,259.661377 234.473267,265.122101 233.340073,270.597107 
	C232.864639,272.894226 232.203339,275.425476 235.515305,276.205658 
	C238.571945,276.925659 240.904846,275.741455 241.664276,272.685333 
	C242.983383,267.377014 243.911118,261.972046 245.190964,256.652863 
	C245.448792,255.581314 246.543350,254.711105 247.252136,253.748077 
	C247.863754,254.460999 248.475357,255.173935 249.040085,256.287537 
z"/>
<path fill="#090000" opacity="1.000000" stroke="none" 
	d="
M161.987366,257.910889 
	C162.947449,250.402832 168.259720,255.234116 172.144821,252.741791 
	C170.445175,260.604553 169.393021,267.144592 167.569153,273.461792 
	C165.549042,280.458832 151.707733,283.186218 146.889404,277.583008 
	C145.916138,276.451233 146.102356,273.877106 146.534622,272.165070 
	C146.759171,271.275787 148.622803,270.566925 149.868195,270.235077 
	C151.091125,269.909180 152.468811,270.164032 153.600830,270.164032 
	C153.943344,270.717621 154.174805,270.963715 154.261963,271.253265 
	C154.848602,273.201721 155.404602,275.159424 155.970535,277.114105 
	C156.978775,275.393341 158.401596,273.786682 158.912766,271.929138 
	C160.144379,267.453583 160.949371,262.860565 161.987366,257.910889 
z"/>
<path fill="#060000" opacity="1.000000" stroke="none" 
	d="
M140.126465,264.900726 
	C141.819260,265.020111 143.100906,265.129608 144.382553,265.239136 
	C144.489563,265.797424 144.596558,266.355743 144.703552,266.914062 
	C142.370483,267.451019 140.037399,267.987946 136.979614,268.691681 
	C136.542328,270.804840 135.991638,273.466003 135.376144,276.440338 
	C138.249146,276.762848 140.630264,277.030151 143.118546,277.309479 
	C141.566345,280.388031 139.488861,280.657776 125.592400,279.732971 
	C127.385979,271.159882 129.159531,262.682587 130.930878,254.215744 
	C136.832657,254.215744 142.362778,254.215744 147.892899,254.215744 
	C148.007080,254.820175 148.121262,255.424606 148.235428,256.029022 
	C145.403961,256.486877 142.572495,256.944733 138.546982,257.595642 
	C138.925232,259.957550 139.320267,262.424194 140.126465,264.900726 
z"/>
<path fill="#060000" opacity="1.000000" stroke="none" 
	d="
M173.780029,264.621094 
	C174.589615,260.830292 175.306030,257.453949 176.015289,254.111343 
	C181.930237,254.111343 187.365280,254.111343 192.800323,254.111343 
	C192.935852,254.684937 193.071365,255.258514 193.206894,255.832108 
	C190.466583,256.385620 187.726257,256.939148 184.325699,257.626068 
	C183.913391,259.485657 183.389893,261.846832 182.803528,264.491516 
	C185.233078,264.785095 187.303101,265.035217 189.373138,265.285370 
	C189.480667,265.821533 189.588196,266.357727 189.695724,266.893921 
	C187.367035,267.440308 185.038345,267.986725 181.975189,268.705475 
	C181.542007,270.809082 180.992859,273.475830 180.382874,276.438049 
	C183.255997,276.766388 185.631241,277.037872 188.138275,277.324402 
	C186.547104,280.339905 181.401901,280.932800 170.687119,279.491394 
	C171.691498,274.651215 172.689163,269.843353 173.780029,264.621094 
z"/>
<path fill="#060000" opacity="1.000000" stroke="none" 
	d="
M91.261169,268.070068 
	C89.945427,270.683380 89.053795,273.246368 87.957039,276.398987 
	C91.125740,276.731995 93.488022,276.980286 95.904488,277.234253 
	C94.884987,280.226837 87.872841,281.056274 78.641594,279.367828 
	C80.420387,270.950165 82.196594,262.544739 83.984291,254.084961 
	C89.837029,254.084961 95.273079,254.084961 100.784920,254.084961 
	C99.994698,256.650970 99.994698,256.650970 92.424561,257.211243 
	C91.931946,259.399109 91.401695,261.754150 90.782059,264.506165 
	C93.182190,264.776825 95.234917,265.008301 97.287636,265.239777 
	C97.392876,265.769867 97.498116,266.299988 97.603355,266.830078 
	C95.630653,267.226654 93.657959,267.623230 91.261169,268.070068 
z"/>
<path fill="#070000" opacity="1.000000" stroke="none" 
	d="
M215.905762,266.016235 
	C214.867416,270.796906 213.892593,275.159912 212.866928,279.750549 
	C210.018204,279.750549 207.273117,279.750549 204.015839,279.750549 
	C205.541626,272.275330 207.016693,265.048706 208.566727,257.454712 
	C206.407364,257.138214 204.547073,256.865570 201.256561,256.383301 
	C203.233688,255.033188 204.209808,253.797745 205.219498,253.769699 
	C211.645813,253.591141 218.079529,253.678864 226.137527,253.678864 
	C224.390869,255.437027 223.539917,256.891754 222.951538,256.792358 
	C217.687332,255.903000 216.895126,259.272797 216.482437,263.168335 
	C216.395676,263.987366 216.144623,264.788971 215.905762,266.016235 
z"/>
<path fill="#070301" opacity="1.000000" stroke="none" 
	d="
M375.772949,300.020325 
	C381.212280,294.631378 386.721497,295.681854 388.487579,302.645050 
	C389.357361,306.074402 388.969879,310.248413 387.793304,313.610168 
	C387.095734,315.603302 383.755280,317.823883 381.597687,317.829468 
	C379.440094,317.835114 375.755035,315.492004 375.418396,313.680573 
	C374.621704,309.393951 375.414276,304.811951 375.772949,300.020325 
z"/>
<path fill="#140000" opacity="1.000000" stroke="none" 
	d="
M113.575165,302.023193 
	C111.977104,302.037384 110.812126,302.048126 109.647316,302.038666 
	C103.868935,301.991669 102.267319,300.396118 102.229843,294.659729 
	C102.189522,288.487244 103.797600,286.715118 109.647774,286.706696 
	C111.688263,286.703735 113.729126,286.970276 115.769821,287.113708 
	C115.851181,287.783539 115.932541,288.453400 116.013901,289.123230 
	C112.732582,289.617065 109.451263,290.110931 106.169945,290.604797 
	C106.167496,291.124939 106.165054,291.645111 106.162605,292.165283 
	C108.734558,292.457184 111.306511,292.749084 114.499657,293.111481 
	C113.089584,298.288452 108.150124,294.247833 105.122360,297.922302 
	C108.320824,298.348633 110.757332,298.558533 113.136337,299.047974 
	C114.066971,299.239380 114.868500,300.058441 115.728821,300.591644 
	C115.155319,301.064575 114.581818,301.537506 113.575165,302.023193 
z"/>
<path fill="#0C0000" opacity="1.000000" stroke="none" 
	d="
M242.146759,291.038147 
	C241.249527,293.292542 240.060364,295.692993 240.581985,297.633545 
	C240.852737,298.640839 244.148926,298.834930 246.340439,298.509155 
	C244.991272,298.109741 243.642105,297.710327 242.292938,297.310913 
	C242.261612,296.721893 242.230301,296.132843 242.198975,295.543823 
	C244.741257,295.309479 247.283539,295.075134 250.236435,294.802948 
	C250.236435,297.451202 250.236435,299.512848 250.236435,302.020813 
	C247.484039,302.020813 245.027267,302.066864 242.572861,302.010468 
	C238.475586,301.916351 236.701004,299.625397 236.533234,295.677246 
	C236.378189,292.028015 237.163910,288.950775 241.171707,287.996460 
	C245.842896,286.884216 249.362930,288.630127 250.387451,292.353699 
	C250.488602,292.721313 250.067200,293.232727 249.890564,293.671875 
	C247.395554,292.759735 244.979889,291.876617 242.146759,291.038147 
z"/>
<path fill="#140000" opacity="1.000000" stroke="none" 
	d="
M216.085098,294.735809 
	C212.733536,296.408264 212.381226,297.328461 213.670090,302.465149 
	C209.434296,300.608643 205.340622,296.551636 200.850815,301.934845 
	C200.850815,297.505524 200.850815,293.076172 200.850815,288.269714 
	C206.255386,287.501953 211.695419,286.758850 215.701920,292.760193 
	C216.082092,293.503235 216.083588,294.119537 216.085098,294.735809 
M207.339813,290.931580 
	C203.158401,290.487457 202.588058,292.474091 204.280151,296.870300 
	C206.572540,295.933533 208.728577,295.052490 210.884613,294.171417 
	C209.986618,293.097198 209.088623,292.023010 207.339813,290.931580 
z"/>
<path fill="#140000" opacity="1.000000" stroke="none" 
	d="
M181.633484,287.984039 
	C182.612457,290.764282 182.614105,290.785217 180.183365,290.975739 
	C177.877808,291.156494 175.568344,291.287140 173.260590,291.439819 
	C173.254745,291.967407 173.248901,292.494995 173.243057,293.022583 
	C176.082291,293.386963 178.921524,293.751343 181.760742,294.115723 
	C181.797043,294.753387 181.833328,295.391052 181.869629,296.028748 
	C179.088379,296.449554 176.307114,296.870361 173.525864,297.291168 
	C173.451920,297.576843 173.377960,297.862549 173.304001,298.148254 
	C176.594330,298.717224 179.884644,299.286224 183.174957,299.855194 
	C183.095261,300.501221 183.015549,301.147278 182.935852,301.793304 
	C179.613159,301.793304 176.082626,302.508026 173.019012,301.617096 
	C168.952087,300.434418 168.305588,296.251984 169.499680,292.927704 
	C170.249237,290.840942 173.016037,289.104248 175.271027,288.057800 
	C176.910431,287.297058 179.193207,287.922699 181.633484,287.984039 
z"/>
<path fill="#0C0000" opacity="1.000000" stroke="none" 
	d="
M190.551575,296.819458 
	C189.979904,297.477844 189.819992,298.127960 189.660095,298.778076 
	C191.314560,298.853668 192.977005,298.854004 194.621063,299.027985 
	C196.013763,299.175323 197.385208,299.523407 199.836685,299.983673 
	C194.718857,302.856049 187.824860,302.934113 186.615204,300.080231 
	C185.416092,297.251221 185.177032,293.372467 186.103500,290.458557 
	C187.115402,287.275879 193.224792,286.926910 198.774841,290.251343 
	C195.341705,290.710938 191.908569,291.170532 188.475433,291.630096 
	C188.486633,292.139008 188.497833,292.647919 188.509018,293.156830 
	C191.249466,293.412994 193.989899,293.669159 197.325104,293.980927 
	C196.235489,298.296906 192.971481,296.164124 190.551575,296.819458 
z"/>
<path fill="#0C0000" opacity="1.000000" stroke="none" 
	d="
M145.689346,295.131470 
	C146.480026,297.235565 146.835312,299.246582 147.325211,302.019562 
	C144.007172,302.019562 141.403625,302.097748 138.806641,302.000458 
	C135.257584,301.867554 133.419876,299.850586 133.080597,296.392578 
	C132.713089,292.646484 133.253372,289.058472 137.494431,288.105164 
	C141.120728,287.290009 144.941254,287.478180 146.766144,291.754333 
	C146.991272,292.281921 146.454117,293.134827 146.546524,292.782013 
	C143.113907,292.358917 140.229706,292.003418 137.345490,291.647949 
	C137.143784,293.560791 136.093109,296.161224 136.948776,297.217682 
	C138.096268,298.634460 140.718246,298.857025 143.077530,298.484406 
	C141.749329,298.172150 140.421127,297.859894 139.092926,297.547638 
	C139.011429,297.000031 138.929916,296.452423 138.848404,295.904816 
	C140.983582,295.616028 143.118774,295.327240 145.689346,295.131470 
z"/>
<path fill="#180000" opacity="1.000000" stroke="none" 
	d="
M153.542572,290.532806 
	C155.797653,285.728790 159.765457,288.184204 162.781555,288.217468 
	C164.377121,288.235107 165.957230,291.014160 167.500412,292.589478 
	C167.680359,292.773193 167.647125,293.241760 167.598846,293.561096 
	C167.176407,296.355377 166.728043,299.145721 166.287369,301.937256 
	C165.619492,299.528442 164.586136,297.153564 164.358398,294.703827 
	C163.856293,289.302643 160.167038,291.522827 157.240753,290.938629 
	C156.831024,295.026672 156.472946,298.599243 156.114883,302.171814 
	C155.246338,302.107056 154.377792,302.042328 153.509247,301.977570 
	C153.509247,298.310608 153.509247,294.643616 153.542572,290.532806 
z"/>
<path fill="#180000" opacity="1.000000" stroke="none" 
	d="
M128.294189,297.792542 
	C128.191605,290.769684 128.046951,290.642456 120.773735,291.446747 
	C120.773735,294.120880 120.876663,296.892548 120.708626,299.647705 
	C120.660583,300.435364 119.827339,301.175110 119.354149,301.936829 
	C118.740089,301.159943 117.638626,300.408936 117.595772,299.601715 
	C117.403389,295.977966 117.511955,292.338257 117.511955,287.946442 
	C120.927612,287.946442 123.961456,287.454041 126.712982,288.122955 
	C128.489700,288.554871 130.822205,290.470886 131.189484,292.107056 
	C131.854477,295.069458 131.262909,298.321320 131.078262,301.445404 
	C131.069000,301.602112 129.461731,301.891998 129.417435,301.783997 
	C128.947571,300.638275 128.643784,299.424500 128.294189,297.792542 
z"/>
<path fill="#140000" opacity="1.000000" stroke="none" 
	d="
M220.849350,288.951935 
	C224.038971,288.636475 227.337021,287.708252 230.375656,288.246002 
	C232.073212,288.546417 234.231201,291.105621 234.596008,292.959076 
	C235.170731,295.878967 234.409149,299.061890 233.556366,302.085052 
	C229.573822,298.716309 235.532852,288.742889 223.956955,291.459839 
	C223.956955,293.561218 224.178986,295.982697 223.868378,298.333801 
	C223.699356,299.613159 222.625687,300.773010 221.484940,301.508453 
	C220.956329,297.004089 220.902832,292.977997 220.849350,288.951935 
z"/>
<path fill="#F1E9E9" opacity="1.000000" stroke="none" 
	d="
M366.976868,281.026184 
	C366.452515,278.266327 366.170776,275.859009 365.814728,272.816528 
	C360.198517,274.007965 354.564270,275.203247 348.563324,276.448853 
	C349.343414,272.369415 355.707581,269.361115 361.594727,270.122101 
	C363.688232,270.392670 365.795807,270.554321 368.353516,270.758789 
	C368.879364,274.576569 368.948608,278.401276 368.925903,282.688141 
	C368.295776,282.559814 367.757629,281.969299 366.976868,281.026184 
z"/>
<path fill="#FDECEC" opacity="1.000000" stroke="none" 
	d="
M337.061096,261.470856 
	C340.778473,259.939423 344.579865,258.784454 348.682556,257.657654 
	C349.524414,259.011230 350.065002,260.336670 350.600281,261.649078 
	C342.757538,266.092743 339.252380,266.131256 337.061096,261.470856 
z"/>
<path fill="#050000" opacity="1.000000" stroke="none" 
	d="
M263.975403,335.175018 
	C264.592560,333.830658 265.110840,332.251587 265.843445,332.144958 
	C268.162689,331.807373 270.562042,332.020233 273.323303,332.020233 
	C273.323303,334.283081 273.323303,336.174072 273.323303,338.098083 
	C267.022400,340.098969 264.655701,339.482849 263.975403,335.175018 
z"/>
<path fill="#180000" opacity="1.000000" stroke="none" 
	d="
M275.194580,333.572083 
	C278.149963,333.035034 281.091553,332.569977 283.894226,333.003296 
	C284.532227,333.101959 284.689606,336.309113 285.171783,338.571411 
	C281.531433,338.571411 278.770966,338.571411 275.390930,338.571411 
	C275.308014,337.106537 275.219208,335.538116 275.194580,333.572083 
z"/>
<path fill="#FBD5D5" opacity="1.000000" stroke="none" 
	d="
M291.029419,324.091248 
	C289.353088,324.482025 288.126984,324.862518 286.900909,325.242981 
	C286.753296,323.501251 286.445496,321.745087 286.599976,320.030579 
	C286.629089,319.706848 288.488708,319.407135 289.518585,319.345367 
	C291.358643,319.235016 293.210052,319.314301 295.917938,319.314301 
	C295.684875,321.348297 295.460785,323.303864 295.236694,325.259460 
	C293.984344,324.866638 292.731995,324.473785 291.029419,324.091248 
z"/>
<path fill="#0C0000" opacity="1.000000" stroke="none" 
	d="
M150.174377,288.026611 
	C151.008362,292.295197 151.448273,296.563171 151.754364,300.840668 
	C151.777527,301.164307 150.742340,301.933960 150.386810,301.833344 
	C149.748703,301.652710 148.752808,300.941864 148.776077,300.498199 
	C148.994415,296.336060 149.397293,292.183624 150.174377,288.026611 
z"/>
<path fill="#050000" opacity="1.000000" stroke="none" 
	d="
M216.027893,295.184967 
	C216.083588,294.119537 216.082092,293.503235 216.084106,292.579681 
	C216.754288,290.840057 217.420975,289.407715 218.538025,288.464447 
	C218.941727,293.279938 218.895065,297.606323 218.848419,301.932739 
	C213.538986,301.820740 216.886276,297.753601 216.027893,295.184967 
z"/>
<path fill="#D20202" opacity="1.000000" stroke="none" 
	d="
M219.228302,301.948029 
	C218.895065,297.606323 218.941727,293.279938 218.946884,288.493042 
	C219.389923,288.263885 219.874466,288.495270 220.604172,288.839294 
	C220.902832,292.977997 220.956329,297.004089 221.069244,301.486420 
	C220.621826,301.949585 220.115005,301.956451 219.228302,301.948029 
z"/>
<path fill="#E20404" opacity="1.000000" stroke="none" 
	d="
M431.057495,250.970718 
	C431.966125,250.486740 432.876465,249.581100 433.783173,249.584702 
	C441.925018,249.617035 441.899048,249.667816 443.047791,257.391510 
	C443.795532,262.419220 444.631714,267.433777 445.584564,273.439178 
	C436.886719,272.420410 429.026672,271.501343 421.167145,270.577972 
	C419.518799,270.384308 417.875549,270.142975 416.224457,269.978577 
	C408.743683,269.233765 400.777008,269.756744 396.593353,261.300018 
	C395.951385,260.002289 393.980286,259.362122 392.659302,257.899292 
	C396.355804,256.151642 398.315063,252.597626 396.257080,250.303192 
	C395.080383,248.991287 392.879944,248.597656 391.140411,247.790604 
	C396.909546,245.196823 402.453339,241.625748 409.636353,244.166367 
	C410.705688,246.254852 411.416412,247.785660 411.972534,249.599487 
	C411.545654,250.932053 411.273315,251.981567 411.001007,253.031097 
	C415.540131,252.509689 414.669647,256.826508 416.560272,257.859741 
	C419.092834,258.534546 421.625366,259.209351 424.031097,259.850372 
	C425.233032,258.841217 426.807892,256.491882 428.073303,256.648132 
	C431.948517,257.126648 431.362000,255.289612 431.109070,252.999481 
	C436.445404,252.940994 438.730377,256.156525 440.089661,260.560730 
	C440.904053,255.298996 439.709473,251.779907 433.943146,251.650955 
	C432.976685,251.629333 432.019165,251.207596 431.057495,250.970718 
z"/>
<path fill="#E50606" opacity="1.000000" stroke="none" 
	d="
M395.774261,229.127182 
	C390.463104,221.464142 392.211304,213.192093 399.507568,209.860153 
	C404.850037,207.420456 410.864014,208.652695 414.465057,212.924866 
	C418.137024,217.281189 418.128510,223.116089 414.131958,229.315491 
	C411.789307,229.015106 409.673645,228.647095 407.740204,227.841705 
	C403.596710,226.115738 399.793243,226.628601 395.774261,229.127182 
z"/>
<path fill="#DC0A0A" opacity="1.000000" stroke="none" 
	d="
M412.127136,249.316467 
	C411.416412,247.785660 410.705688,246.254852 409.987122,244.352509 
	C415.121216,245.027756 420.315704,245.878998 425.373932,247.237442 
	C426.943359,247.658951 428.143066,249.457108 428.916290,250.829819 
	C428.172272,251.381546 428.024017,251.728455 427.731201,252.380493 
	C422.194580,257.316071 418.822052,256.722595 414.929230,250.754868 
	C414.606628,250.260391 414.636292,246.471725 412.127136,249.316467 
M425.408173,250.506271 
	C425.791016,250.589417 426.173828,250.672577 426.556671,250.755707 
	C426.317078,250.560989 426.077454,250.366272 425.408173,250.506271 
z"/>
<path fill="#FDF2F2" opacity="1.000000" stroke="none" 
	d="
M390.768799,247.856934 
	C392.879944,248.597656 395.080383,248.991287 396.257080,250.303192 
	C398.315063,252.597626 396.355804,256.151642 392.355103,257.660889 
	C389.596771,258.380829 387.178101,258.820679 384.107056,259.132507 
	C383.607941,256.289886 383.761261,253.575333 383.914551,250.860779 
	C386.075409,249.881607 388.236298,248.902435 390.768799,247.856934 
z"/>
<path fill="#FDECEC" opacity="1.000000" stroke="none" 
	d="
M411.972534,249.599503 
	C414.636292,246.471725 414.606628,250.260391 414.929230,250.754868 
	C418.822052,256.722595 422.194580,257.316071 427.995361,252.329269 
	C428.576080,251.923813 428.748077,251.874680 428.920074,251.825562 
	C429.073608,251.894272 429.227173,251.962997 429.709259,252.246033 
	C430.177765,252.738205 430.398895,252.913895 430.701172,252.987427 
	C431.362000,255.289612 431.948517,257.126648 428.073303,256.648132 
	C426.807892,256.491882 425.233032,258.841217 424.031097,259.850372 
	C421.625366,259.209351 419.092834,258.534546 416.560272,257.859741 
	C414.669647,256.826508 415.540131,252.509689 411.001007,253.031097 
	C411.273315,251.981567 411.545654,250.932053 411.972534,249.599503 
z"/>
<path fill="#E20404" opacity="1.000000" stroke="none" 
	d="
M383.540649,250.902679 
	C383.761261,253.575333 383.607941,256.289886 383.757385,259.184326 
	C381.667633,260.339691 379.275116,261.315155 376.853973,262.302307 
	C374.440186,254.787552 374.776550,254.221710 383.540649,250.902679 
z"/>
<path fill="#BB0202" opacity="1.000000" stroke="none" 
	d="
M413.634827,291.151489 
	C422.211212,291.576965 430.719757,292.363403 439.228333,293.149841 
	C439.181305,293.758698 439.134277,294.367554 439.087250,294.976440 
	C433.507568,294.511536 427.910278,294.192535 422.355286,293.522827 
	C419.388184,293.165131 416.494049,292.202209 413.634827,291.151489 
z"/>
<path fill="#D20202" opacity="1.000000" stroke="none" 
	d="
M430.422943,296.473816 
	C432.840607,296.851807 434.821686,297.143677 436.802734,297.435516 
	C436.731873,297.986877 436.661011,298.538269 436.590149,299.089630 
	C428.915955,298.540344 421.241730,297.991058 413.567505,297.441772 
	C413.606628,296.672272 413.645721,295.902771 413.684845,295.133270 
	C419.118683,295.551392 424.552521,295.969513 430.422943,296.473816 
z"/>
<path fill="#340503" opacity="1.000000" stroke="none" 
	d="
M431.109070,252.999481 
	C430.398895,252.913895 430.177765,252.738205 429.961426,252.255646 
	C430.175629,251.840332 430.466248,251.629700 430.907166,251.194901 
	C432.019165,251.207596 432.976685,251.629333 433.943146,251.650955 
	C439.709473,251.779907 440.904053,255.298996 440.089661,260.560730 
	C438.730377,256.156525 436.445404,252.940994 431.109070,252.999481 
z"/>
<path fill="#E60202" opacity="1.000000" stroke="none" 
	d="
M373.092865,237.327789 
	C373.745148,237.054367 374.462616,237.191772 375.360992,237.676605 
	C374.747284,237.928879 373.952667,237.833771 373.092865,237.327789 
z"/>
<path fill="#340503" opacity="1.000000" stroke="none" 
	d="
M428.941284,251.624298 
	C428.748077,251.874680 428.576080,251.923813 428.139893,252.024170 
	C428.024017,251.728455 428.172272,251.381546 428.630798,251.026764 
	C428.941071,251.018890 428.962524,251.423050 428.941284,251.624298 
z"/>
<path fill="#D20202" opacity="1.000000" stroke="none" 
	d="
M264.579590,264.423615 
	C263.248657,265.207916 262.154968,265.689026 260.038177,266.620239 
	C260.728119,263.363495 261.014587,261.129761 261.726318,259.040955 
	C262.059174,258.064056 263.213928,257.367188 263.996185,256.543396 
	C264.673676,257.663391 265.812592,258.745575 265.908203,259.913208 
	C266.019867,261.276703 265.220825,262.714722 264.579590,264.423615 
z"/>
<path fill="#D20202" opacity="1.000000" stroke="none" 
	d="
M286.085266,261.795959 
	C286.393951,264.590332 286.657013,267.038361 286.987732,270.116211 
	C285.038147,270.297058 283.364777,270.452332 280.611176,270.707794 
	C282.487549,266.917084 283.969330,263.920959 285.466888,260.932678 
	C285.482239,260.902039 285.747559,260.933929 285.820526,261.009583 
	C285.929016,261.122070 285.969940,261.299713 286.085266,261.795959 
z"/>
<path fill="#E60202" opacity="1.000000" stroke="none" 
	d="
M351.275452,244.392059 
	C351.327393,243.747284 351.750427,243.006561 352.537354,242.546036 
	C352.482971,243.316193 352.064758,243.806137 351.275452,244.392059 
z"/>
<path fill="#E70707" opacity="1.000000" stroke="none" 
	d="
M318.245239,223.075089 
	C325.380493,223.718109 329.214355,226.784424 329.974854,232.114380 
	C330.755188,237.583511 327.837067,242.561020 322.799652,244.353317 
	C317.534546,246.226669 311.753357,243.870621 309.361389,238.876770 
	C306.864014,233.662888 308.418854,227.982590 313.315460,224.981186 
	C314.692993,224.136810 316.329224,223.714401 318.245239,223.075089 
z"/>
<path fill="#DC0202" opacity="1.000000" stroke="none" 
	d="
M61.763115,271.707031 
	C62.650734,267.416351 63.302429,263.494019 64.343765,259.677948 
	C64.648697,258.560486 66.061295,257.745270 66.966194,256.791534 
	C67.690079,257.869110 69.151375,259.054413 69.012390,260.005981 
	C68.349876,264.542053 67.516434,269.095703 66.173119,273.467773 
	C65.672813,275.096130 63.618603,276.247040 62.272968,277.615662 
	C61.805386,277.320618 61.337803,277.025604 60.870216,276.730560 
	C61.138771,275.192322 61.407322,273.654114 61.763115,271.707031 
z"/>
<path fill="#D20202" opacity="1.000000" stroke="none" 
	d="
M116.312881,257.144287 
	C117.377945,263.489746 116.356133,265.209290 110.986069,265.607422 
	C113.362625,262.761780 109.650238,257.350647 116.312881,257.144287 
z"/>
<path fill="#DC0202" opacity="1.000000" stroke="none" 
	d="
M207.765228,290.940186 
	C209.088623,292.023010 209.986618,293.097198 210.884613,294.171417 
	C208.728577,295.052490 206.572540,295.933533 204.280151,296.870300 
	C202.588058,292.474091 203.158401,290.487457 207.765228,290.940186 
z"/>
<path fill="#340503" opacity="1.000000" stroke="none" 
	d="
M425.623016,250.338913 
	C426.077454,250.366272 426.317078,250.560989 426.556671,250.755707 
	C426.173828,250.672577 425.791016,250.589417 425.623016,250.338913 
z"/>
</svg>